<svg xmlns="http://www.w3.org/2000/svg" width="26" height="26" id="brain"><g fill="#fff" transform="translate(5 -1031.362)"><circle cx="8" cy="1044.362" r="13" fill="#1d67b1"></circle><path style="line-height:normal;text-indent:0;text-align:start;text-decoration-line:none;text-decoration-style:solid;text-decoration-color:#000;text-transform:none;block-progression:tb;isolation:auto;mix-blend-mode:normal" fill="#154082" d="M16.117 25.605a13 13 0 0 0 .36-.08 13 13 0 0 0 1.234-.408 13 13 0 0 0 1.185-.531 13 13 0 0 0 1.127-.647 13 13 0 0 0 1.057-.755 13 13 0 0 0 .977-.858 13 13 0 0 0 .886-.951 13 13 0 0 0 .786-1.035 13 13 0 0 0 .68-1.108 13 13 0 0 0 .566-1.17 13 13 0 0 0 .445-1.22 13 13 0 0 0 .32-1.26 13 13 0 0 0 .158-1.041l-7.916-7.916c-.024-.025-.052-.046-.078-.07-.039-.038-.08-.073-.12-.11a5.444 5.444 0 0 0-.745-.568c-.023-.015-.047-.027-.07-.041a5.616 5.616 0 0 0-.867-.434l-.057-.021a5.679 5.679 0 0 0-.953-.274c-.106-.02-.215-.034-.322-.048-.072-.01-.143-.023-.215-.03l-.008-.002a5.698 5.698 0 0 0-.533-.025h-.002V5c-1.377 0-2.938.243-4.211.988-1.273.746-2.233 2.063-2.233 3.961 0 1.014-.086 1.317-.257 1.65-.172.334-.508.763-.913 1.73a.5.5 0 0 0 .461.69l1.016 1.016v1.01c0 .47-.064.939.262 1.385.032.043.067.085.105.123l2.77 2.77v.177a.5.5 0 0 0 .5.5l4.605 4.605z" color="#000" font-family="sans-serif" font-weight="400" transform="translate(-5 1031.362)"></path><path d="M9.154.002c-1.376 0-2.938.243-4.21.988C3.67 1.736 2.71 3.053 2.71 4.951c0 1.014-.086 1.317-.258 1.65-.172.334-.508.762-.912 1.73a.5.5 0 0 0 .461.69H3.02l-.002.393a.5.5 0 0 0 0 .01v1.623c0 .47-.064.939.261 1.385.163.222.419.379.703.463.285.084.611.113 1.024.113h1.148v2.494a.5.5 0 0 0 .5.5h5.54a.5.5 0 0 0 .5-.5v-3.498c0-1.657.43-2.434.913-3.275.463-.805.97-1.723 1.016-3.176a.5.5 0 0 0 .031-.174c0-3.202-2.623-5.375-5.5-5.375V.002zm0 .996v.004c2.385 0 4.5 1.712 4.5 4.375 0 1.355-.418 1.99-.914 2.852-.496.862-1.047 1.93-1.047 3.773V15H7.154v-2.494a.5.5 0 0 0-.5-.5H5.006c-.358 0-.603-.031-.742-.072-.14-.041-.16-.071-.176-.094-.034-.046-.07-.308-.07-.795V9.416c.004-.405.006-.628.003-.766 0-.069 0-.11-.013-.191C4 8.418 4 8.362 3.932 8.254a.661.661 0 0 0-.43-.236H2.83c.173-.309.372-.693.512-.963.24-.466.369-1.025.369-2.108 0-1.58.697-2.488 1.738-3.097C6.49 1.24 7.9.998 9.154.998zM9.002 2v.002c-.892-.01-2 .112-2.91.545-.455.216-.87.52-1.139.959-.268.44-.359 1.006-.219 1.61.145.62.589 1.056 1.067 1.165.478.11.926.013 1.36-.052.432-.065.846-.113 1.185-.053.339.06.609.192.89.601.3.437.65.743 1.045.897a1.5 1.5 0 0 0 1.194-.043c.718-.35 1.13-1.176 1.203-2.184.075-1.045-.387-1.943-1.09-2.533-.704-.59-1.636-.907-2.586-.914Zm-.008 1.002c.73.01 1.452.26 1.951.68.5.419.787.97.735 1.695-.055.763-.39 1.232-.645 1.357a.434.434 0 0 1-.39.01c-.157-.06-.366-.216-.584-.533-.418-.607-.99-.92-1.54-1.018-.55-.098-1.068-.017-1.51.05-.44.065-.81.105-.988.064-.177-.04-.226-.04-.314-.418-.092-.397-.036-.643.098-.862.133-.218.377-.42.714-.58.675-.32 1.686-.451 2.473-.445Z" color="#000" font-family="sans-serif" font-weight="400" overflow="visible" transform="translate(-.142 1036.36)" style="line-height:normal;text-indent:0;text-align:start;text-decoration-line:none;text-decoration-style:solid;text-decoration-color:#000;text-transform:none;block-progression:tb;isolation:auto;mix-blend-mode:normal"></path></g></svg>