<svg xmlns="http://www.w3.org/2000/svg" viewBox="0 0 32 32" id="telephone-booth-location"><path fill="#607d95" d="M22.2 17l-1.5-1.5c-.2-.2-.6-.3-.8-.1l-1.5 1c-.5.3-1.2.3-1.7-.2l-3.6-3.6c-.4-.4-.5-1.1-.2-1.7l1-1.5c.2-.3.1-.6-.1-.8l-1.5-1.5c-.3-.3-.7-.3-.9 0l-1.3 1.3c-.6.7-.8 1.7-.6 2.6.4 1.5 1.1 2.9 2.2 4l2.7 2.7c1.1 1.1 2.5 1.9 4 2.2.9.2 1.9 0 2.5-.7l1.3-1.3c.3-.2.3-.6 0-.9z"></path><path fill="#4b6c85" d="M21.3 18.9l1-1c.3-.3.3-.7 0-.9l-1.5-1.5c-.2-.2-.6-.3-.8-.1l-1.3.8 2.6 2.7zM13.1 10.8l.9-1.3c.2-.3.1-.6-.1-.8l-1.5-1.5c-.3-.3-.7-.3-.9 0l-1 1 2.6 2.6zM19.3 19.1c-1.5-.4-2.9-1.2-4-2.3L12.5 14c-1.1-1.1-1.9-2.5-2.3-4-.2-.6-.1-1.3.2-1.8l-.2.2c-.7.7-.9 1.7-.7 2.6.4 1.5 1.1 2.9 2.2 4l2.7 2.7c1.1 1.1 2.5 1.9 4 2.2.9.2 1.9 0 2.5-.7l.3-.3c-.5.3-1.2.4-1.9.2z"></path><path fill="#40657c" d="M22 16.8c-.4.4-1.1.4-1.5 0l-1.1-1.1-.8.5 2.6 2.6 1-1c.3-.3.3-.7 0-.9l-.2-.1zM13.7 8.5c-.3.5-1 .5-1.4.1l-1.2-1.2-.7.7 2.6 2.6 1-1.2c.2-.3.1-.6-.1-.8l-.2-.2z"></path><path fill="#ef4a4c" d="M24.8 4.6C20-.3 12-.3 7.2 4.6c-4.9 4.9-4.9 12.8 0 17.7l8.8 8.8 8.8-8.8c4.9-4.9 4.9-12.8 0-17.7zm-1.6 15.1c-1.7 2-4.3 3.3-7.2 3.3-5.2 0-9.5-4.3-9.5-9.5S10.8 4 16 4s9.5 4.3 9.5 9.5c0 2.4-.9 4.6-2.3 6.2z"></path><path fill="#e0313f" d="M19 4c-.5 0-1 .1-1.5.1 4.5.7 8 4.6 8 9.4 0 2.4-.9 4.6-2.3 6.2-1.4 1.6-3.4 2.8-5.7 3.1.5.1 1 .1 1.5.1 2.9 0 5.4-1.3 7.2-3.3 1.3-1.4 2.1-3.3 2.3-5.3v-1C28.5 8.2 24.2 4 19 4zM10.2 22.3c-2.2-2.2-3.4-4.9-3.6-7.8 0-.3-.1-.7-.1-1 0-3.2 1.2-6.4 3.7-8.9 2.1-2.1 4.7-3.2 7.3-3.6-3.7-.4-7.5.7-10.3 3.6-4.9 4.9-4.9 12.8 0 17.7l8.8 8.8 1.5-1.5-7.3-7.3z"></path></svg>