<svg xmlns="http://www.w3.org/2000/svg" viewBox="0 0 32 32" id="employee"><path fill="#fff" d="M14.75 6.5h-8a2 2 0 0 0-2 2v15a2 2 0 0 0 2 2h21a2 2 0 0 0 2-2v-13h-14l-1-4z"></path><path fill="#cbaad0" d="M15.75 21.144c0-.524-.292-.987-.736-1.243l.01-.004c-.037-.022-.077-.037-.116-.056-.035-.016-.063-.042-.1-.056l-1.961-.735v-1.254c-.005.004-.012.005-.017.009v-.011a1.799 1.799 0 0 1-1.08.37 1.799 1.799 0 0 1-1.08-.37v.011c-.005-.004-.012-.005-.017-.009v1.254l-1.961.735c-.037.014-.065.04-.1.056-.039.019-.08.034-.116.056l.01.004a1.439 1.439 0 0 0-.736 1.243V22.5h8v-1.356z"></path><path fill="#eadded" d="M15.024 7.5H27.75a2 2 0 0 1 2 2v1h-14M15.75 10.5l-1-4h-2.5l1 4zM13.633 14.887v1.446a1.893 1.893 0 1 1-3.786 0v-1.446"></path><path fill="#eadded" d="M13.405 19.53l-.522-.196v-1.309H10.59v1.309l-.516.194a1.887 1.887 0 0 0 1.666 1.012c.725 0 1.347-.412 1.665-1.01z"></path><path fill="#9868ac" d="M13.639 15.415l.446-1.463a.916.916 0 0 0-.75-1.067l-2.158-.36a.898.898 0 0 0-1.045.885v.024a.74.74 0 0 0-.724.895l.444 1.085"></path><path fill="#8e5ba5" d="M27.75 26h-21a2.503 2.503 0 0 1-2.5-2.5v-15c0-1.379 1.122-2.5 2.5-2.5h8a.5.5 0 0 1 .485.379L16.141 10H29.75a.5.5 0 0 1 .5.5v13c0 1.379-1.122 2.5-2.5 2.5zm-21-19c-.827 0-1.5.673-1.5 1.5v15c0 .827.673 1.5 1.5 1.5h21c.827 0 1.5-.673 1.5-1.5V11h-13.5a.5.5 0 0 1-.485-.379L14.359 7H6.75z"></path><path fill="#8e5ba5" d="M27.25 11h-14a.5.5 0 0 1-.485-.379l-1-4a.5.5 0 1 1 .97-.242L13.641 10H27.25a.5.5 0 0 1 0 1z"></path><path fill="#8e5ba5" d="M29.75 11h-9a.5.5 0 0 1 0-1h8.5v-.5c0-.827-.673-1.5-1.5-1.5h-12.5a.5.5 0 0 1 0-1h12.5c1.378 0 2.5 1.121 2.5 2.5v1a.5.5 0 0 1-.5.5zM26.75 23h-6a.5.5 0 0 1 0-1h6a.5.5 0 0 1 0 1zM26.75 21h-3a.5.5 0 0 1 0-1h3a.5.5 0 0 1 0 1zM11.741 18.666a2.317 2.317 0 0 1-2.314-2.314v-1.465h1v1.465c0 .725.59 1.314 1.314 1.314s1.314-.59 1.314-1.314v-1.465h1v1.465a2.317 2.317 0 0 1-2.314 2.314z"></path><path fill="#8e5ba5" d="M13.646 15.387H9.828a.499.499 0 0 1-.444-.271l-.327-.633a.465.465 0 0 1-.044-.125 1.209 1.209 0 0 1 .741-1.379 1.355 1.355 0 0 1 1.523-.947l2.068.345c.366.061.686.262.899.565.214.304.295.673.229 1.039l-.355 1.065a.498.498 0 0 1-.472.341zm-3.514-1h3.155l.222-.654a.471.471 0 0 0-.081-.215.372.372 0 0 0-.246-.154l-2.068-.345a.363.363 0 0 0-.292.081.355.355 0 0 0-.127.273.53.53 0 0 1-.146.365c-.155.155-.458.162-.517.236a.201.201 0 0 0-.047.127l.147.286zM7.75 23a.5.5 0 0 1-.5-.5v-1.356c0-.81.509-1.543 1.267-1.827l1.636-.613v-.907a.5.5 0 0 1 .801-.399 1.3 1.3 0 0 0 1.575-.001.5.5 0 0 1 .801.398v.909l1.637.614c.107.039.212.09.311.147a.5.5 0 0 1-.506.864.994.994 0 0 0-.154-.074l-1.963-.736a.5.5 0 0 1-.324-.468v-.462a2.28 2.28 0 0 1-1.177.001v.461a.5.5 0 0 1-.324.468l-1.961.735a.955.955 0 0 0-.618.891V22.5a.502.502 0 0 1-.501.5z"></path><path fill="#8e5ba5" d="M15.75 23a.5.5 0 0 1-.5-.5v-1.356a.954.954 0 0 0-.617-.89l-1.961-.736a.5.5 0 0 1-.324-.468v-.461a2.26 2.26 0 0 1-1.177-.001v.462a.5.5 0 0 1-.324.468l-1.961.735a.98.98 0 0 0-.156.075.5.5 0 0 1-.506-.864 1.87 1.87 0 0 1 .313-.148l1.634-.613v-.909a.499.499 0 0 1 .801-.398 1.3 1.3 0 0 0 1.575.001.502.502 0 0 1 .801.399v.907l1.637.614a1.958 1.958 0 0 1 1.266 1.826V22.5a.502.502 0 0 1-.501.5z"></path><path fill="#8e5ba5" d="M11.742 21.001c-.99 0-1.921-.484-2.49-1.296a.5.5 0 1 1 .82-.574 2.04 2.04 0 0 0 3.34.002.5.5 0 1 1 .818.574 3.042 3.042 0 0 1-2.488 1.294z"></path></svg>