<svg xmlns="http://www.w3.org/2000/svg" viewBox="0 0 64 64" id="location"><rect width="60" height="44" x="2" y="11" fill="#00bebd" rx="3"></rect><path fill="#fff" d="M60 14v35H4V14a1 1 0 0 1 1-1h54a1 1 0 0 1 1 1Z"></path><path fill="#00aaa8" d="M39 63H25l1-8h12l1 8z"></path><path fill="#50d9d7" d="M45 64H19a1 1 0 0 1 0-2h26a1 1 0 0 1 0 2zm15-50v3H4v-3a1 1 0 0 1 1-1h54a1 1 0 0 1 1 1z"></path><path fill="#93e6e5" d="M35 16v1H19v-4h13a3 3 0 0 1 3 3Z"></path><path fill="#fff" d="M5 13h14a3 3 0 0 1 3 3v2H4v-4a1 1 0 0 1 1-1Z"></path><path fill="#93e6e5" d="M4 17h12v16H4zM23 49H4V39h24l-5 10zM60 49H29l5-10h26v10zM22 17h38v16H22z"></path><path fill="#50d9d7" d="M32 13H21.76a12.31 12.31 0 0 0 2.62 4H35v-1a3 3 0 0 0-3-3zm7.61 4a19.06 19.06 0 0 0-4.48 9.34 3.18 3.18 0 0 1-6.27 0A19.56 19.56 0 0 0 24.38 17z"></path><path fill="#00bebd" d="M42.25 13a12.18 12.18 0 0 1-2.64 4H35v-1a3 3 0 0 0-3-3Z"></path><path fill="#00aaa8" d="M42.82 11a9.93 9.93 0 0 1-.57 2H21.76a10.44 10.44 0 0 1-.58-2h8.59a3 3 0 0 0 4.46 0Z"></path><path fill="#ffac00" d="M32.24 0a9 9 0 0 0-6.93 15 21.89 21.89 0 0 1 5.53 11 1.18 1.18 0 0 0 2.32 0 21.29 21.29 0 0 1 5.45-10.9A9 9 0 0 0 32.24 0zM32 14a5 5 0 1 1 5-5 5 5 0 0 1-5 5zM11 37H9a1 1 0 0 1 0-2h2a1 1 0 0 1 0 2zm6 0h-2a1 1 0 0 1 0-2h2a1 1 0 0 1 0 2zm6 0h-2a1 1 0 0 1 0-2h2a1 1 0 0 1 0 2zm6 0h-2a1 1 0 0 1 0-2h2a1 1 0 0 1 0 2z"></path></svg>