<svg xmlns="http://www.w3.org/2000/svg" viewBox="0 0 512 512" id="website"><rect width="484" height="484" x="14" y="14" fill="#544f57" rx="16.58"></rect><rect width="424.77" height="353.99" x="43.62" y="114.39" fill="#665e66" rx="4.63"></rect><path fill="#e49542" fill-rule="evenodd" d="M439.8 259.7a10.62 10.62 0 0 0-10.62-10.62H201.35a10.62 10.62 0 0 0-10.62 10.62V425a10.62 10.62 0 0 0 10.62 10.62h227.83A10.62 10.62 0 0 0 439.8 425Z"></path><path fill="#f9f48e" fill-rule="evenodd" d="M439.8 157.78a10.62 10.62 0 0 0-10.62-10.62H201.35a10.62 10.62 0 0 0-10.62 10.62v51.11a10.62 10.62 0 0 0 10.62 10.62h227.83a10.62 10.62 0 0 0 10.62-10.62zm-278.64 0a10.62 10.62 0 0 0-10.62-10.62H82.82a10.62 10.62 0 0 0-10.61 10.62V425a10.62 10.62 0 0 0 10.61 10.62h67.72A10.62 10.62 0 0 0 161.16 425z"></path><path fill="#61a2f9" d="M30.58 14A16.55 16.55 0 0 0 14 30.58v50.69h484V30.58A16.55 16.55 0 0 0 481.42 14Z"></path><path fill="#1a78f6" d="M153.66 14h15v67.27h-15z"></path><path fill="#f6f6f6" fill-rule="evenodd" d="M257.06 56.11h56.28a7.5 7.5 0 0 0 0-15h-56.28a7.5 7.5 0 0 0 0 15zm107.87 0h91.77a7.5 7.5 0 0 0 0-15h-91.77a7.5 7.5 0 0 0 0 15z"></path><path fill="#f9f48e" fill-rule="evenodd" d="M225.8 284.49h155.81a7.5 7.5 0 0 0 0-15H225.8a7.5 7.5 0 0 0 0 15zm0 31.51h118.88a7.5 7.5 0 1 0 0-15H225.8a7.5 7.5 0 1 0 0 15zm0 31.57h155.81a7.5 7.5 0 0 0 0-15H225.8a7.5 7.5 0 0 0 0 15zm0 31.54h118.88a7.5 7.5 0 0 0 0-15H225.8a7.5 7.5 0 0 0 0 15zm0 31.55h155.81a7.5 7.5 0 0 0 0-15H225.8a7.5 7.5 0 0 0 0 15z"></path></svg>