<svg xmlns="http://www.w3.org/2000/svg" xmlns:xlink="http://www.w3.org/1999/xlink" width="25" height="25" id="user"><defs><linearGradient id="a"><stop offset="0" stop-color="#24f7bc"></stop><stop offset="1" stop-color="#24c4fc"></stop></linearGradient><linearGradient id="b" x1="949.87" x2="974.39" y1="518.014" y2="544.657" gradientTransform="translate(-761.892 619.344) scale(.80097)" gradientUnits="userSpaceOnUse" xlink:href="#a"></linearGradient></defs><g fill="#fff" transform="translate(4.417 -1032.375)"><rect width="25" height="25" x="-4.417" y="1032.375" fill="url(#b)" rx="5.283" ry="5.283"></rect><path d="M12 6c-1.653 0-3 1.347-3 3v2a2.98 2.98 0 0 0 1.094 2.313 5.644 5.644 0 0 0-3.719 5.156c0 .251.218.484.469.5l8.812.031a1.52 1.52 0 0 1-.156-.656V18l-8.031-.031c.333-2.229 2.156-3.924 4.437-3.969H12c.063 0 .126.004.188 0a4.38 4.38 0 0 1 2.687 1.031c-.005-.047 0-.07 0-.125 0-.348.067-.492.125-.594.058-.1.141-.16.188-.218.027-.035.036-.064.062-.094a5.925 5.925 0 0 0-1.375-.688C14.546 12.762 15 11.934 15 11V9c0-1.653-1.347-3-3-3zm0 1c1.117 0 2 .883 2 2v2c0 1.046-.766 1.897-1.781 2h-.031c-.117 0-.23-.01-.344 0A2.004 2.004 0 0 1 10 11V9c0-1.117.883-2 2-2zm5.188 3.5c-.13.006-.28.02-.438.063a1.109 1.109 0 0 0-.5.28.974.974 0 0 0-.25.657v2.375a.262.262 0 0 1-.031.063c-.037.056-.112.13-.188.218-.075.088-.142.185-.219.281-.038.049-.087.09-.124.157-.038.066-.094.128-.094.312 0 .187.081.277.125.344.043.067.085.113.125.156.079.087.148.175.219.25.14.15.187.29.187.25v2.469a.98.98 0 0 0 .313.688c.17.151.338.212.5.25.323.075.641.03.656.03v-1c-.144 0-.312.025-.438 0-.034-.01-.017-.026-.031-.03v-2.407c0-.467-.285-.74-.469-.937-.029-.031-.036-.036-.062-.063.029-.034.06-.055.093-.094.085-.098.167-.215.25-.343.084-.128.188-.276.188-.531V11.53c.103-.028.3-.031.469-.031v-1c-.07 0-.153-.006-.282 0zm2.312 0v1c.168 0 .366 0 .469.031H20v2.406c0 .477.256.711.438.907.021.024.042.04.062.062l-.063.063c-.19.194-.468.465-.468.937v2.406c-.014.01.003.028-.032.032-.126.029-.293 0-.437 0v1c.015 0 .332.044.656-.032.162-.038.36-.098.532-.25.17-.151.28-.425.28-.687v-2.469c0 .03.046-.105.188-.25.071-.073.169-.134.25-.219.04-.041.08-.088.125-.156a.54.54 0 0 0 .094-.344.567.567 0 0 0-.094-.343c-.042-.066-.085-.112-.125-.156-.079-.09-.146-.172-.218-.25-.095-.103-.162-.213-.188-.25V11.5c0-.24-.126-.5-.281-.656a1.024 1.024 0 0 0-.469-.281c-.315-.087-.611-.063-.75-.063z" color="#000" font-family="sans-serif" font-weight="400" overflow="visible" transform="translate(-4.417 1032.375)" style="text-indent:0;text-align:start;line-height:normal;text-transform:none;block-progression:tb"></path></g></svg>